<?xml version="1.0" standalone="no"?>
<!DOCTYPE svg PUBLIC "-//W3C//DTD SVG 20010904//EN"
 "http://www.w3.org/TR/2001/REC-SVG-20010904/DTD/svg10.dtd">
<svg version="1.0" xmlns="http://www.w3.org/2000/svg"
 width="512.000000pt" height="512.000000pt" viewBox="0 0 512.000000 512.000000"
 preserveAspectRatio="xMidYMid meet">

<g transform="translate(0.000000,512.000000) scale(0.100000,-0.100000)"
fill="#000000" stroke="none">
<path d="M446 5040 c3 -41 18 -294 34 -561 l28 -485 -25 -85 c-19 -63 -26
-116 -30 -212 -8 -190 20 -333 94 -482 l35 -70 -13 -200 c-17 -244 -17 -813 0
-1025 38 -500 115 -946 230 -1344 l40 -140 -39 -42 c-47 -51 -85 -124 -105
-201 -16 -62 -20 -160 -7 -181 7 -10 292 -12 1423 -10 l1414 3 78 39 c130 65
259 200 335 351 37 75 86 211 102 290 13 58 18 65 140 190 324 332 478 643
497 1000 10 204 -35 432 -118 597 -48 94 -100 168 -229 323 -183 219 -220 286
-240 427 -21 149 12 320 139 709 91 281 107 337 121 436 38 273 -180 445 -410
322 -164 -87 -278 -300 -379 -710 -69 -280 -95 -541 -72 -737 16 -139 34 -199
90 -317 52 -109 68 -136 250 -420 203 -317 281 -494 266 -605 -15 -110 -83
-310 -105 -310 -4 0 -24 28 -44 63 -98 168 -273 348 -457 470 -129 86 -331
187 -494 247 -142 52 -245 120 -366 240 -140 138 -233 287 -294 466 l-27 80
30 60 c67 134 96 267 95 434 0 118 -9 179 -44 302 -11 40 -8 123 19 595 18
301 33 552 32 558 0 5 -128 -118 -283 -273 l-284 -284 -104 36 c-235 79 -473
73 -712 -20 l-47 -18 -285 284 -285 285 6 -75z"/>
</g>
</svg>
