<svg xmlns="http://www.w3.org/2000/svg" height="24" viewBox="0 -960 960 960" width="24"><path d="M250.77-803.844h420.768v479.998L406.154-60.002l-33.845-33.844q-6.23-6.231-10.346-16.5-4.115-10.269-4.115-19.346v-10.154l42.461-184h-268q-28.539 0-50.423-21.885-21.884-21.884-21.884-50.423v-64.614q0-6.231 1.615-13.461 1.615-7.231 3.615-13.462l114.615-270.46q8.616-19.231 28.846-32.462 20.231-13.231 42.077-13.231Zm360.769 59.999H250.77q-4.231 0-8.654 2.308-4.424 2.308-6.732 7.693L120-463.845v67.691q0 5.385 3.462 8.847 3.462 3.462 8.847 3.462h343.845L426-164.614l185.539-184.77v-394.461Zm0 394.461v-394.461 394.461Zm59.999 25.538v-59.999H800v-360H671.538v-59.999h188.461v479.998H671.538Z"/></svg>