<svg xmlns="http://www.w3.org/2000/svg" height="24" viewBox="0 -960 960 960" width="24"><path d="M709.23-140.001H288.462v-479.998l265.384-263.845 33.845 33.845q6.23 6.231 10.346 16.5 4.115 10.269 4.115 19.346v10.154l-42.461 184h268q28.539 0 50.423 21.885 21.885 21.884 21.885 50.423v64.614q0 6.231-1.616 13.461-1.615 7.231-3.615 13.462l-114.615 270.46q-8.616 19.231-28.846 32.462-20.231 13.231-42.077 13.231ZM348.461-200H709.23q4.231 0 8.654-2.308 4.424-2.308 6.732-7.693L840-480v-67.691q0-5.385-3.462-8.847-3.462-3.462-8.847-3.462H483.846L534-779.231l-185.539 184.77V-200Zm0-394.461V-200v-394.461Zm-59.999-25.538V-560H160v360h128.462v59.999H100.001v-479.998h188.461Z"/></svg>